<mxfile host="Electron" modified="2024-09-02T02:57:21.545Z" agent="Mozilla/5.0 (X11; Linux x86_64) AppleWebKit/537.36 (KHTML, like Gecko) draw.io/24.4.0 Chrome/120.0.6099.109 Electron/28.1.0 Safari/537.36" etag="TyMvL_Aly51dCgv47Bl6" version="24.4.0" type="device">
  <diagram id="C5RBs43oDa-KdzZeNtuy" name="Page-1">
    <mxGraphModel dx="797" dy="399" grid="1" gridSize="10" guides="1" tooltips="1" connect="1" arrows="1" fold="1" page="1" pageScale="1" pageWidth="827" pageHeight="1169" math="0" shadow="0">
      <root>
        <mxCell id="WIyWlLk6GJQsqaUBKTNV-0" />
        <mxCell id="WIyWlLk6GJQsqaUBKTNV-1" parent="WIyWlLk6GJQsqaUBKTNV-0" />
        <mxCell id="32bz97TJ6SjFxx-dLfnX-0" value="Contacto&lt;span style=&quot;color: rgba(0, 0, 0, 0); font-family: monospace; font-size: 0px; font-weight: 400; text-align: start; text-wrap: nowrap;&quot;&gt;%3CmxGraphModel%3E%3Croot%3E%3CmxCell%20id%3D%220%22%2F%3E%3CmxCell%20id%3D%221%22%20parent%3D%220%22%2F%3E%3CmxCell%20id%3D%222%22%20value%3D%22Classname%22%20style%3D%22swimlane%3BfontStyle%3D1%3Balign%3Dcenter%3BverticalAlign%3Dtop%3BchildLayout%3DstackLayout%3Bhorizontal%3D1%3BstartSize%3D26%3BhorizontalStack%3D0%3BresizeParent%3D1%3BresizeParentMax%3D0%3BresizeLast%3D0%3Bcollapsible%3D1%3BmarginBottom%3D0%3BwhiteSpace%3Dwrap%3Bhtml%3D1%3B%22%20vertex%3D%221%22%20parent%3D%221%22%3E%3CmxGeometry%20x%3D%22560%22%20y%3D%2280%22%20width%3D%22160%22%20height%3D%2286%22%20as%3D%22geometry%22%2F%3E%3C%2FmxCell%3E%3CmxCell%20id%3D%223%22%20value%3D%22%2B%20field%3A%20type%22%20style%3D%22text%3BstrokeColor%3Dnone%3BfillColor%3Dnone%3Balign%3Dleft%3BverticalAlign%3Dtop%3BspacingLeft%3D4%3BspacingRight%3D4%3Boverflow%3Dhidden%3Brotatable%3D0%3Bpoints%3D%5B%5B0%2C0.5%5D%2C%5B1%2C0.5%5D%5D%3BportConstraint%3Deastwest%3BwhiteSpace%3Dwrap%3Bhtml%3D1%3B%22%20vertex%3D%221%22%20parent%3D%222%22%3E%3CmxGeometry%20y%3D%2226%22%20width%3D%22160%22%20height%3D%2226%22%20as%3D%22geometry%22%2F%3E%3C%2FmxCell%3E%3CmxCell%20id%3D%224%22%20value%3D%22%22%20style%3D%22line%3BstrokeWidth%3D1%3BfillColor%3Dnone%3Balign%3Dleft%3BverticalAlign%3Dmiddle%3BspacingTop%3D-1%3BspacingLeft%3D3%3BspacingRight%3D3%3Brotatable%3D0%3BlabelPosition%3Dright%3Bpoints%3D%5B%5D%3BportConstraint%3Deastwest%3BstrokeColor%3Dinherit%3B%22%20vertex%3D%221%22%20parent%3D%222%22%3E%3CmxGeometry%20y%3D%2252%22%20width%3D%22160%22%20height%3D%228%22%20as%3D%22geometry%22%2F%3E%3C%2FmxCell%3E%3CmxCell%20id%3D%225%22%20value%3D%22%2B%20method(type)%3A%20type%22%20style%3D%22text%3BstrokeColor%3Dnone%3BfillColor%3Dnone%3Balign%3Dleft%3BverticalAlign%3Dtop%3BspacingLeft%3D4%3BspacingRight%3D4%3Boverflow%3Dhidden%3Brotatable%3D0%3Bpoints%3D%5B%5B0%2C0.5%5D%2C%5B1%2C0.5%5D%5D%3BportConstraint%3Deastwest%3BwhiteSpace%3Dwrap%3Bhtml%3D1%3B%22%20vertex%3D%221%22%20parent%3D%222%22%3E%3CmxGeometry%20y%3D%2260%22%20width%3D%22160%22%20height%3D%2226%22%20as%3D%22geometry%22%2F%3E%3C%2FmxCell%3E%3C%2Froot%3E%3C%2FmxGraphModel%3E&lt;/span&gt;" style="swimlane;fontStyle=1;align=center;verticalAlign=top;childLayout=stackLayout;horizontal=1;startSize=26;horizontalStack=0;resizeParent=1;resizeParentMax=0;resizeLast=0;collapsible=1;marginBottom=0;whiteSpace=wrap;html=1;" parent="WIyWlLk6GJQsqaUBKTNV-1" vertex="1">
          <mxGeometry x="205" y="500" width="170" height="104" as="geometry" />
        </mxCell>
        <mxCell id="32bz97TJ6SjFxx-dLfnX-1" value="- nombre: String&amp;nbsp;&lt;div&gt;- email: String &lt;/div&gt;" style="text;strokeColor=none;fillColor=none;align=left;verticalAlign=top;spacingLeft=4;spacingRight=4;overflow=hidden;rotatable=0;points=[[0,0.5],[1,0.5]];portConstraint=eastwest;whiteSpace=wrap;html=1;" parent="32bz97TJ6SjFxx-dLfnX-0" vertex="1">
          <mxGeometry y="26" width="170" height="44" as="geometry" />
        </mxCell>
        <mxCell id="32bz97TJ6SjFxx-dLfnX-2" value="" style="line;strokeWidth=1;fillColor=none;align=left;verticalAlign=middle;spacingTop=-1;spacingLeft=3;spacingRight=3;rotatable=0;labelPosition=right;points=[];portConstraint=eastwest;strokeColor=inherit;" parent="32bz97TJ6SjFxx-dLfnX-0" vertex="1">
          <mxGeometry y="70" width="170" height="8" as="geometry" />
        </mxCell>
        <mxCell id="32bz97TJ6SjFxx-dLfnX-3" value="+ method(type): type" style="text;strokeColor=none;fillColor=none;align=left;verticalAlign=top;spacingLeft=4;spacingRight=4;overflow=hidden;rotatable=0;points=[[0,0.5],[1,0.5]];portConstraint=eastwest;whiteSpace=wrap;html=1;" parent="32bz97TJ6SjFxx-dLfnX-0" vertex="1">
          <mxGeometry y="78" width="170" height="26" as="geometry" />
        </mxCell>
        <mxCell id="32bz97TJ6SjFxx-dLfnX-4" value="" style="endArrow=open;endFill=1;endSize=12;html=1;rounded=0;entryX=0;entryY=0.25;entryDx=0;entryDy=0;" parent="WIyWlLk6GJQsqaUBKTNV-1" source="32bz97TJ6SjFxx-dLfnX-5" target="32bz97TJ6SjFxx-dLfnX-9" edge="1">
          <mxGeometry width="160" relative="1" as="geometry">
            <mxPoint x="440" y="260" as="sourcePoint" />
            <mxPoint x="340" y="60" as="targetPoint" />
          </mxGeometry>
        </mxCell>
        <mxCell id="32bz97TJ6SjFxx-dLfnX-14" value="recividos 0 a N" style="edgeLabel;html=1;align=center;verticalAlign=middle;resizable=0;points=[];" parent="32bz97TJ6SjFxx-dLfnX-4" vertex="1" connectable="0">
          <mxGeometry x="0.0875" y="3" relative="1" as="geometry">
            <mxPoint y="1" as="offset" />
          </mxGeometry>
        </mxCell>
        <mxCell id="32bz97TJ6SjFxx-dLfnX-5" value="Cuenta" style="swimlane;fontStyle=1;align=center;verticalAlign=top;childLayout=stackLayout;horizontal=1;startSize=26;horizontalStack=0;resizeParent=1;resizeParentMax=0;resizeLast=0;collapsible=1;marginBottom=0;whiteSpace=wrap;html=1;" parent="WIyWlLk6GJQsqaUBKTNV-1" vertex="1">
          <mxGeometry x="170" y="150" width="240" height="250" as="geometry" />
        </mxCell>
        <mxCell id="32bz97TJ6SjFxx-dLfnX-6" value="- nombreUsuario: String&lt;br&gt;- direccionMail: String&lt;br&gt;- correosRecibidos: Vector&amp;lt;Correo&amp;gt;&amp;nbsp;&lt;br&gt;- correosEnviados: Vector&amp;lt;Correo&amp;gt;&lt;br&gt;- contactos: Vector&amp;lt;Contacto&amp;gt;" style="text;strokeColor=none;fillColor=none;align=left;verticalAlign=top;spacingLeft=4;spacingRight=4;overflow=hidden;rotatable=0;points=[[0,0.5],[1,0.5]];portConstraint=eastwest;whiteSpace=wrap;html=1;" parent="32bz97TJ6SjFxx-dLfnX-5" vertex="1">
          <mxGeometry y="26" width="240" height="84" as="geometry" />
        </mxCell>
        <mxCell id="32bz97TJ6SjFxx-dLfnX-7" value="" style="line;strokeWidth=1;fillColor=none;align=left;verticalAlign=middle;spacingTop=-1;spacingLeft=3;spacingRight=3;rotatable=0;labelPosition=right;points=[];portConstraint=eastwest;strokeColor=inherit;" parent="32bz97TJ6SjFxx-dLfnX-5" vertex="1">
          <mxGeometry y="110" width="240" height="8" as="geometry" />
        </mxCell>
        <mxCell id="32bz97TJ6SjFxx-dLfnX-8" value="+ cantidadCorreos(): int&lt;br&gt;+ cantidadCorreosRecibidos(): int&lt;br&gt;+ cantidadCorreosEnviados(): int&lt;br&gt;+ cantidadCorreosNoLeidos(): int&lt;br&gt;+ cantidadContactos(): int&lt;br&gt;+ agregarCorreoRecibido(correo: Correo)&lt;br&gt;+ agregarCorreoEnviado(correo: Correo)&lt;br&gt;+ agregarContacto(contacto: Contacto)" style="text;strokeColor=none;fillColor=none;align=left;verticalAlign=top;spacingLeft=4;spacingRight=4;overflow=hidden;rotatable=0;points=[[0,0.5],[1,0.5]];portConstraint=eastwest;whiteSpace=wrap;html=1;" parent="32bz97TJ6SjFxx-dLfnX-5" vertex="1">
          <mxGeometry y="118" width="240" height="132" as="geometry" />
        </mxCell>
        <mxCell id="32bz97TJ6SjFxx-dLfnX-9" value="Correo" style="swimlane;fontStyle=1;align=center;verticalAlign=top;childLayout=stackLayout;horizontal=1;startSize=26;horizontalStack=0;resizeParent=1;resizeParentMax=0;resizeLast=0;collapsible=1;marginBottom=0;whiteSpace=wrap;html=1;" parent="WIyWlLk6GJQsqaUBKTNV-1" vertex="1">
          <mxGeometry x="520" y="220" width="160" height="154" as="geometry">
            <mxRectangle x="520" y="220" width="80" height="30" as="alternateBounds" />
          </mxGeometry>
        </mxCell>
        <mxCell id="32bz97TJ6SjFxx-dLfnX-10" value="- asunto: String&lt;br&gt;- texto: String&lt;br&gt;- leido: boolean&lt;br&gt;- origen: Contacto&lt;br&gt;- destino: Vector&amp;lt;Contacto&amp;gt;" style="text;strokeColor=none;fillColor=none;align=left;verticalAlign=top;spacingLeft=4;spacingRight=4;overflow=hidden;rotatable=0;points=[[0,0.5],[1,0.5]];portConstraint=eastwest;whiteSpace=wrap;html=1;" parent="32bz97TJ6SjFxx-dLfnX-9" vertex="1">
          <mxGeometry y="26" width="160" height="94" as="geometry" />
        </mxCell>
        <mxCell id="32bz97TJ6SjFxx-dLfnX-11" value="" style="line;strokeWidth=1;fillColor=none;align=left;verticalAlign=middle;spacingTop=-1;spacingLeft=3;spacingRight=3;rotatable=0;labelPosition=right;points=[];portConstraint=eastwest;strokeColor=inherit;" parent="32bz97TJ6SjFxx-dLfnX-9" vertex="1">
          <mxGeometry y="120" width="160" height="8" as="geometry" />
        </mxCell>
        <mxCell id="32bz97TJ6SjFxx-dLfnX-12" value="+ isLeido(): boolean" style="text;strokeColor=none;fillColor=none;align=left;verticalAlign=top;spacingLeft=4;spacingRight=4;overflow=hidden;rotatable=0;points=[[0,0.5],[1,0.5]];portConstraint=eastwest;whiteSpace=wrap;html=1;" parent="32bz97TJ6SjFxx-dLfnX-9" vertex="1">
          <mxGeometry y="128" width="160" height="26" as="geometry" />
        </mxCell>
        <mxCell id="32bz97TJ6SjFxx-dLfnX-13" value="" style="endArrow=open;endFill=1;endSize=12;html=1;rounded=0;exitX=1.013;exitY=0.231;exitDx=0;exitDy=0;exitPerimeter=0;entryX=0.013;entryY=0.154;entryDx=0;entryDy=0;entryPerimeter=0;" parent="WIyWlLk6GJQsqaUBKTNV-1" source="32bz97TJ6SjFxx-dLfnX-8" target="32bz97TJ6SjFxx-dLfnX-12" edge="1">
          <mxGeometry width="160" relative="1" as="geometry">
            <mxPoint x="190" y="70" as="sourcePoint" />
            <mxPoint x="470" y="350" as="targetPoint" />
          </mxGeometry>
        </mxCell>
        <mxCell id="32bz97TJ6SjFxx-dLfnX-15" value="enviados&amp;nbsp; 0 a N" style="edgeLabel;html=1;align=center;verticalAlign=middle;resizable=0;points=[];" parent="32bz97TJ6SjFxx-dLfnX-13" vertex="1" connectable="0">
          <mxGeometry x="-0.0138" y="-2" relative="1" as="geometry">
            <mxPoint as="offset" />
          </mxGeometry>
        </mxCell>
        <mxCell id="32bz97TJ6SjFxx-dLfnX-16" value="" style="endArrow=open;endFill=1;endSize=12;html=1;rounded=0;" parent="WIyWlLk6GJQsqaUBKTNV-1" source="32bz97TJ6SjFxx-dLfnX-5" target="32bz97TJ6SjFxx-dLfnX-0" edge="1">
          <mxGeometry width="160" relative="1" as="geometry">
            <mxPoint x="450" y="420" as="sourcePoint" />
            <mxPoint x="610" y="420" as="targetPoint" />
          </mxGeometry>
        </mxCell>
        <mxCell id="32bz97TJ6SjFxx-dLfnX-17" value="contactos 0 a N" style="edgeLabel;html=1;align=center;verticalAlign=middle;resizable=0;points=[];" parent="32bz97TJ6SjFxx-dLfnX-16" vertex="1" connectable="0">
          <mxGeometry x="-0.2092" relative="1" as="geometry">
            <mxPoint as="offset" />
          </mxGeometry>
        </mxCell>
      </root>
    </mxGraphModel>
  </diagram>
</mxfile>
